<svg xmlns="http://www.w3.org/2000/svg" xmlns:xlink="http://www.w3.org/1999/xlink" width="1080" zoomAndPan="magnify" viewBox="0 0 810 809.999993" height="1080" preserveAspectRatio="xMidYMid meet" version="1.0"><path fill="#f2f2f2" d="M 796.40625 368.726562 L 673.644531 245.96875 L 673.644531 104.160156 C 673.644531 78.519531 652.867188 57.738281 627.1875 57.738281 C 601.570312 57.738281 580.789062 78.519531 580.789062 104.160156 L 580.789062 153.113281 L 489.386719 61.707031 C 444.195312 16.539062 365.625 16.621094 320.535156 61.789062 L 13.589844 368.726562 C -4.527344 386.882812 -4.527344 416.257812 13.589844 434.386719 C 31.71875 452.539062 61.152344 452.539062 79.273438 434.386719 L 386.1875 127.441406 C 396.1875 117.496094 413.808594 117.496094 423.753906 127.410156 L 730.722656 434.386719 C 739.824219 443.464844 751.691406 447.976562 763.554688 447.976562 C 775.445312 447.976562 787.332031 443.457031 796.40625 434.386719 C 814.53125 416.261719 814.53125 386.882812 796.40625 368.726562 Z M 796.40625 368.726562 " fill-opacity="1" fill-rule="nonzero"/><path fill="#f2f2f2" d="M 421.125 215.558594 C 412.207031 206.644531 397.769531 206.644531 388.875 215.558594 L 118.886719 485.46875 C 114.625 489.726562 112.207031 495.546875 112.207031 501.617188 L 112.207031 698.476562 C 112.207031 744.671875 149.664062 782.128906 195.859375 782.128906 L 329.53125 782.128906 L 329.53125 575.113281 L 480.441406 575.113281 L 480.441406 782.128906 L 614.117188 782.128906 C 660.308594 782.128906 697.765625 744.671875 697.765625 698.480469 L 697.765625 501.617188 C 697.765625 495.546875 695.367188 489.726562 691.085938 485.46875 Z M 421.125 215.558594 " fill-opacity="1" fill-rule="nonzero"/></svg>